<!DOCTYPE svg PUBLIC "-//W3C//DTD SVG 1.1//EN" "http://www.w3.org/Graphics/SVG/1.1/DTD/svg11.dtd">
<!-- Uploaded to: SVG Repo, www.svgrepo.com, Transformed by: SVG Repo Mixer Tools -->
<svg version="1.1" id="Layer_1" xmlns="http://www.w3.org/2000/svg" xmlns:xlink="http://www.w3.org/1999/xlink" viewBox="0 0 512 512" xml:space="preserve" width="800px" height="800px" fill="#000000">
<g id="SVGRepo_bgCarrier" stroke-width="0"/>
<g id="SVGRepo_tracerCarrier" stroke-linecap="round" stroke-linejoin="round"/>
<g id="SVGRepo_iconCarrier"> <path style="fill:#FFBA57;" d="M91.849,367.954c-16.499,5.024-33.585,13.299-47.165,26.879 C5.729,433.787,10.391,501.609,10.391,501.609s67.822,4.662,106.778-34.294c13.579-13.579,21.854-30.665,26.879-47.165 L91.849,367.954z"/> <polygon style="fill:#E6E6E6;" points="166.271,263.114 91.838,367.942 91.849,367.954 144.047,420.151 144.058,420.162 248.886,345.729 "/> <rect x="163.577" y="269.614" transform="matrix(-0.7071 -0.7071 0.7071 -0.7071 173.9061 652.0443)" style="fill:#B3B3B3;" width="116.837" height="40.783"/> <polygon style="fill:#E8655A;" points="501.801,51.507 460.493,10.199 195.108,234.275 277.725,316.892 "/> <g> <path style="fill:#603813;" d="M509.013,44.295L467.704,2.987c-3.749-3.748-9.743-4-13.791-0.58L188.53,226.483 c-0.099,0.084-0.186,0.177-0.281,0.264c-0.116,0.106-0.238,0.204-0.351,0.317l-28.838,28.837c0,0-0.015,0.022-0.04,0.061 c-0.382,0.388-0.746,0.797-1.065,1.246L85.482,359.277c-19.447,6.4-35.589,15.921-48.009,28.342 C-4.284,429.377,0.012,499.35,0.216,502.309c0.35,5.081,4.395,9.126,9.476,9.476c0.549,0.038,3.393,0.215,7.932,0.215 c19.972,0,72.732-3.448,106.757-37.473c12.42-12.42,21.942-28.562,28.342-48.009l102.069-72.472 c0.45-0.319,0.859-0.682,1.246-1.065c0.038-0.024,0.061-0.04,0.061-0.04l28.837-28.838c0.113-0.113,0.212-0.236,0.318-0.352 c0.087-0.095,0.18-0.182,0.262-0.279L509.593,58.088C513.013,54.037,512.76,48.044,509.013,44.295z M248.887,331.306 l-68.194-68.194l14.414-14.414l68.192,68.192L248.887,331.306z M145.177,406.858l-40.036-40.036l62.454-87.96l65.542,65.542 L145.177,406.858z M109.957,460.104c-26.985,26.985-70.489,31.024-89.487,31.427c0.404-19.009,4.445-62.507,31.427-89.488 c9.56-9.561,22.045-17.095,37.174-22.445l20.25,20.25c-2.391,9.816-5.979,18.675-10.7,26.37 c-2.945,4.802-1.441,11.081,3.361,14.026c1.663,1.021,3.504,1.507,5.324,1.507c3.429,0,6.778-1.73,8.703-4.867 c3.879-6.322,7.111-13.237,9.703-20.646l6.69,6.69C127.052,438.059,119.517,450.544,109.957,460.104z M277.09,301.833 l-66.924-66.924L459.909,24.039l28.051,28.051L277.09,301.833z"/> <path style="fill:#603813;" d="M324.702,155.338l-85.362,72.076c-4.304,3.634-4.846,10.068-1.213,14.372 c2.017,2.39,4.897,3.62,7.798,3.62c2.323,0,4.66-0.789,6.574-2.406l85.362-72.076c4.304-3.634,4.846-10.068,1.213-14.372 C335.442,152.248,329.005,151.705,324.702,155.338z"/> <path style="fill:#603813;" d="M354.284,130.361l-6.762,5.71c-4.304,3.634-4.846,10.069-1.213,14.372 c2.018,2.39,4.897,3.619,7.798,3.619c2.323,0,4.661-0.789,6.575-2.406l6.762-5.71c4.304-3.634,4.846-10.069,1.213-14.372 C365.022,127.27,358.587,126.728,354.284,130.361z"/> <path style="fill:#603813;" d="M60.835,407.278c-23.998,21.891-25.75,57.788-25.812,59.304c-0.234,5.628,4.141,10.378,9.768,10.612 c0.144,0.006,0.287,0.009,0.429,0.009c5.438,0,9.955-4.293,10.183-9.777c0.012-0.287,1.677-29.113,19.179-45.078 c4.161-3.796,4.458-10.247,0.662-14.408C71.446,403.778,64.996,403.482,60.835,407.278z"/> </g> </g>
</svg>